P1
88 7
1000001000000000000000000000000000000000000000001000001000000000000000000000000000000000
1000001011111100100000001000000001111000000000001001001001111000111110001000000011111000
1000001010000000100000001000000010000100000000001001001010000100100001001000000010000100
1111111011111000100000001000000010000100000000001001001010000100100001001000000010000100
1000001010000000100000001000000010000100000000001001001010000100111110001000000010000100
1000001010000000100000001000000010000100000000001001001010000100100010001000000010000100
1000001011111100111111001111110001111000000000000110110001111000100001001111110011111000